<svg id="Layer_1" data-name="Layer 1" xmlns="http://www.w3.org/2000/svg" viewBox="0 0 999.55 216.1"><defs><style>.cls-1{fill:#fff;}</style></defs><path class="cls-1" d="M227.42,119.74l-107.2,99a8.1,8.1,0,0,1-11.45-.46L60.91,166.41A8.12,8.12,0,0,1,61.37,155l98.27-90.71-12.93-14L46,143.22a8.11,8.11,0,0,1-11.45-.46L10.6,116.84a8.11,8.11,0,0,1,.46-11.45L117.74,6.9a8.11,8.11,0,0,1,11,11.92L28,111.8l12.93,14,100.73-93a8.11,8.11,0,0,1,11.45.46L177.05,59.2a8.11,8.11,0,0,1-.46,11.45L78.32,161.37l36.86,39.92,95.29-88L197.75,99.55l-73.63,67a8.1,8.1,0,0,1-11-11.94l0,0,79.58-72.45a8.1,8.1,0,0,1,11.41.49l23.68,25.64A8.12,8.12,0,0,1,227.42,119.74Z" transform="translate(-8.45 -4.75)"/><path class="cls-1" d="M280.49,165.9a35.54,35.54,0,0,1-15.44-11.72A32,32,0,0,1,259,135.5h28.82c.42,4.11,1.84,7.26,4.27,9.42a13.79,13.79,0,0,0,9.51,3.25q6,0,9.5-2.78a9.25,9.25,0,0,0,3.48-7.68,9.1,9.1,0,0,0-2.77-6.81,22.47,22.47,0,0,0-6.81-4.43,110.22,110.22,0,0,0-11.48-4,125,125,0,0,1-17.58-6.65A32.48,32.48,0,0,1,264.18,106q-4.9-6.5-4.91-16.94,0-15.52,11.25-24.31T299.81,56q18.38,0,29.62,8.79t12,24.46H312.17a11.53,11.53,0,0,0-4-8.47,14,14,0,0,0-9.35-3.09A11.63,11.63,0,0,0,291,80.31q-3,2.61-3,7.52,0,5.39,5.06,8.39t15.84,6.5a148.29,148.29,0,0,1,17.5,7A33.33,33.33,0,0,1,338,119.34q4.9,6.34,4.91,16.32a32,32,0,0,1-4.83,17.26,33.87,33.87,0,0,1-14,12.35q-9.18,4.59-21.69,4.59A57.2,57.2,0,0,1,280.49,165.9Z" transform="translate(-8.45 -4.75)"/><path class="cls-1" d="M376.38,164.48a40.55,40.55,0,0,1-16.31-15.84q-5.94-10.29-5.94-24.07,0-13.62,6-24a40.82,40.82,0,0,1,16.47-15.92,52.34,52.34,0,0,1,46.87,0A40.82,40.82,0,0,1,440,100.58a46.94,46.94,0,0,1,6,24q0,13.62-6.1,24a41.26,41.26,0,0,1-16.62,15.92A49.83,49.83,0,0,1,399.74,170,48.82,48.82,0,0,1,376.38,164.48ZM413,140.88q5.46-5.7,5.47-16.31t-5.31-16.31a18,18,0,0,0-26.21-.08q-5.22,5.63-5.22,16.39,0,10.6,5.14,16.31a16.65,16.65,0,0,0,12.91,5.7A17.64,17.64,0,0,0,413,140.88Z" transform="translate(-8.45 -4.75)"/><path class="cls-1" d="M487.47,51.56V168.75H460.39V51.56Z" transform="translate(-8.45 -4.75)"/><path class="cls-1" d="M509.09,67a13.62,13.62,0,0,1-4.52-10.38,13.78,13.78,0,0,1,4.52-10.53,16.45,16.45,0,0,1,11.64-4.2,16.24,16.24,0,0,1,11.48,4.2,13.77,13.77,0,0,1,4.51,10.53A13.61,13.61,0,0,1,532.21,67a16.23,16.23,0,0,1-11.48,4.19A16.45,16.45,0,0,1,509.09,67Zm25.1,13.38v88.36H507.11V80.39Z" transform="translate(-8.45 -4.75)"/><path class="cls-1" d="M553.59,100.5a38.44,38.44,0,0,1,14-15.84,36.63,36.63,0,0,1,19.8-5.54,34.73,34.73,0,0,1,15.91,3.64,29,29,0,0,1,11.32,9.82v-41h27.08V168.75H614.63V156.08a27.53,27.53,0,0,1-10.84,10.14A34.08,34.08,0,0,1,587.4,170a36.18,36.18,0,0,1-19.8-5.62,38.84,38.84,0,0,1-14-16q-5.16-10.36-5.15-24T553.59,100.5ZM609,108.58a19,19,0,0,0-27.39-.08Q576,114.28,576,124.41t5.63,16.08a18.86,18.86,0,0,0,27.39.07q5.63-5.85,5.62-16T609,108.58Z" transform="translate(-8.45 -4.75)"/><path class="cls-1" d="M735.15,92.74a20.27,20.27,0,0,0-8.63-8.47,28.18,28.18,0,0,0-13.23-2.93q-13.14,0-21.06,8.63t-7.92,23q0,15.36,8.32,24t22.88,8.63q10,0,16.86-5.07T742.43,126H708.07V106H767v25.18a53.12,53.12,0,0,1-10.22,18.85,53.93,53.93,0,0,1-18.29,14.09,56.52,56.52,0,0,1-25,5.38q-16.47,0-29.38-7.2a51.3,51.3,0,0,1-20.11-20q-7.2-12.83-7.2-29.3T664,83.63a51.33,51.33,0,0,1,20-20.11q12.82-7.2,29.29-7.2,20,0,33.65,9.66t18.14,26.76Z" transform="translate(-8.45 -4.75)"/><path class="cls-1" d="M784,67a13.61,13.61,0,0,1-4.51-10.38A13.77,13.77,0,0,1,784,46.1a16.45,16.45,0,0,1,11.64-4.2,16.24,16.24,0,0,1,11.48,4.2,13.77,13.77,0,0,1,4.51,10.53A13.61,13.61,0,0,1,807.12,67a16.23,16.23,0,0,1-11.48,4.19A16.45,16.45,0,0,1,784,67Zm25.1,13.38v88.36H782V80.39Z" transform="translate(-8.45 -4.75)"/><path class="cls-1" d="M878.7,82.92a28,28,0,0,1,10.85,10V80.39h27.08V168.6a49.73,49.73,0,0,1-4.83,22.09,36.8,36.8,0,0,1-14.73,15.75q-9.9,5.87-24.63,5.86-19.63,0-31.83-9.26t-13.93-25.1h26.76a12.84,12.84,0,0,0,6,8,22,22,0,0,0,11.72,2.93q8.39,0,13.38-4.83t5-15.44V156.08a30.11,30.11,0,0,1-10.93,10.06A33,33,0,0,1,862.31,170a36.21,36.21,0,0,1-19.8-5.62,38.84,38.84,0,0,1-14-16q-5.14-10.36-5.15-24t5.15-23.91a38.44,38.44,0,0,1,14-15.84,36.65,36.65,0,0,1,19.8-5.54A34,34,0,0,1,878.7,82.92Zm5.23,25.66a19,19,0,0,0-27.4-.08q-5.62,5.77-5.62,15.91t5.62,16.08a18.87,18.87,0,0,0,27.4.07q5.61-5.85,5.62-16T883.93,108.58Z" transform="translate(-8.45 -4.75)"/><path class="cls-1" d="M951.62,166.06a35.21,35.21,0,0,1-14.25-10.85,28.54,28.54,0,0,1-5.86-15.44h26.76a10.31,10.31,0,0,0,4.28,7.45,15.12,15.12,0,0,0,9.34,2.85q5.07,0,7.84-2a6.06,6.06,0,0,0,2.77-5.15c0-2.53-1.32-4.41-4-5.62a80.53,80.53,0,0,0-12.82-4,119.89,119.89,0,0,1-15.84-4.67A27.45,27.45,0,0,1,939,120.85q-4.59-5.31-4.59-14.33a24.33,24.33,0,0,1,4.2-13.86,28.21,28.21,0,0,1,12.35-9.9q8.16-3.65,19.4-3.64,16.63,0,26.21,8.24t11,21.85h-25a10.83,10.83,0,0,0-4-7.29,14.07,14.07,0,0,0-9-2.69q-4.75,0-7.29,1.82a5.82,5.82,0,0,0-2.53,5q0,3.81,4,5.7a64,64,0,0,0,12.59,3.8,139.52,139.52,0,0,1,16,5,27.61,27.61,0,0,1,10.85,7.92q4.67,5.46,4.83,14.65a23.19,23.19,0,0,1-4.36,13.85,28.8,28.8,0,0,1-12.51,9.59A47.84,47.84,0,0,1,972.21,170,50.79,50.79,0,0,1,951.62,166.06Z" transform="translate(-8.45 -4.75)"/></svg>