<svg xmlns="http://www.w3.org/2000/svg" width="200" height="126" viewBox="0 0 200 126" fill="none"><path d="M29.6456 7.78673C31.1058 6.16929 31.7728 3.98857 31.4368 1.93118C30.5712 1.65017 29.6229 1.64621 28.7104 1.92075C27.7984 2.19454 26.9635 2.73451 26.3129 3.47167C24.8405 5.08375 24.1715 7.27004 24.5217 9.32722C25.3879 9.60283 26.3347 9.6045 27.2459 9.33021C28.1566 9.05668 28.9913 8.52003 29.6456 7.78661L29.6456 7.78673Z" fill="white"></path><path d="M19.1319 16.257C20.6407 14.5046 21.1948 12.1228 20.6183 9.87109C20.2656 7.57872 18.8272 5.58747 16.7553 4.52471C15.2457 6.27649 14.6916 8.65827 15.2695 10.9098C15.6073 13.2079 17.05 15.2046 19.1319 16.2569L19.1319 16.257Z" fill="white"></path><path d="M20.4072 16.8926C20.9869 17.7474 21.79 18.417 22.7319 18.8303C23.674 19.245 24.7209 19.3882 25.7616 19.2454C26.7883 19.1079 27.7698 18.6822 28.5932 18.0152C29.4161 17.3489 30.0486 16.4687 30.4164 15.4754C29.8432 14.624 29.0458 13.9574 28.1084 13.5473C27.1709 13.1372 26.1298 12.9983 25.0952 13.1466C24.0693 13.2847 23.0868 13.7086 22.2592 14.3691C21.4317 15.0309 20.7904 15.9046 20.4073 16.8926L20.4072 16.8926Z" fill="white"></path><path d="M15.1464 29.8333C16.4981 27.6164 16.7541 24.9132 15.8366 22.5348C15.1663 20.1184 13.3394 18.2273 10.9627 17.4893C9.64943 19.7065 9.40433 22.385 10.2975 24.7519C10.9733 27.1639 12.7832 29.0607 15.1465 29.8333L15.1464 29.8333Z" fill="white"></path><path d="M16.6193 29.7169C17.4352 30.6111 18.4838 31.2679 19.6386 31.6092C20.7938 31.952 22.0084 31.9646 23.1359 31.6452C24.2438 31.3413 25.2317 30.7442 25.9946 29.9155C26.7575 29.0868 27.2671 28.0591 27.4691 26.9401C26.6543 26.0889 25.6265 25.4665 24.4988 25.1437C23.3725 24.8208 22.1923 24.8105 21.0931 25.1139C19.9715 25.3886 18.9628 25.9615 18.1747 26.772C17.3859 27.5832 16.8488 28.6009 16.619 29.7167L16.6193 29.7169Z" fill="white"></path><path d="M11.6573 43.6897C12.624 40.8882 12.3111 37.8519 10.8068 35.4292C9.59358 33.0236 7.18841 31.5093 4.48028 31.4439C3.51354 34.2455 3.82587 37.2826 5.33074 39.7045C6.56373 42.091 8.95813 43.5988 11.6573 43.6897Z" fill="white"></path><path d="M16.4441 36.9966C14.2239 38.3515 12.9913 40.7818 13.1696 43.4506C14.3023 44.1786 15.5965 44.5902 16.8915 44.6328C18.1872 44.676 19.4256 44.3498 20.4535 43.6936C22.7006 42.3695 23.9515 39.9401 23.7652 37.2666C22.6292 36.5328 21.3297 36.1162 20.0287 36.0681C18.7264 36.0201 17.4802 36.343 16.4442 36.9966L16.4441 36.9966Z" fill="white"></path><path d="M10.198 49.0906C9.44555 48.0122 8.41616 47.1613 7.21734 46.6259C6.01821 46.0889 4.692 45.8872 3.37537 46.0398C2.80075 48.9062 3.53016 51.8529 5.36205 54.0664C6.09939 55.1459 7.11605 56.0009 8.30587 56.5395C9.49552 57.078 10.8149 57.2809 12.1245 57.1268C12.7188 54.266 12.0116 51.3162 10.1982 49.0907L10.198 49.0906Z" fill="white"></path><path d="M13.529 56.8604C14.6342 57.3396 15.8653 57.4745 17.0699 57.2501C18.275 57.0248 19.4005 56.449 20.3071 55.5936C22.3343 53.7824 23.3669 51.0973 23.0575 48.4406C21.9447 47.95 20.702 47.809 19.4852 48.0364C18.2684 48.2637 17.1328 48.8488 16.2214 49.717C14.2779 51.5773 13.2802 54.2239 13.5291 56.8606L13.529 56.8604Z" fill="white"></path><path d="M17.3644 71.0352C17.0364 67.9409 15.2756 65.1653 12.606 63.5352C11.4687 62.7389 10.1283 62.2834 8.74478 62.2219C7.36064 62.16 5.99226 62.4956 4.80064 63.189C5.11334 66.2912 6.86532 69.0806 9.53352 70.724C10.6758 71.5251 12.0232 71.981 13.4124 72.0359C14.8024 72.0914 16.1744 71.7441 17.3644 71.0352L17.3644 71.0352Z" fill="white"></path><path d="M18.274 70.534C19.7264 70.5514 21.1317 70.1589 22.3241 69.4014C23.5165 68.644 24.4462 67.554 25.0015 66.2616C26.4622 63.5546 26.5641 60.2814 25.2777 57.3583C23.8293 57.3509 22.4277 57.7485 21.2372 58.5036C20.0467 59.2601 19.1151 60.3441 18.551 61.6298C17.0903 64.3369 16.9884 67.61 18.2742 70.5339L18.274 70.534Z" fill="white"></path><path d="M10.5709 77.3714C10.9562 80.6747 12.8684 83.6663 15.7448 85.4639C17.0039 86.3192 18.4749 86.8013 19.9787 86.8518C21.4824 86.9022 22.9529 86.5188 24.2108 85.7475C23.8488 82.4544 21.9325 79.4732 19.0474 77.7138C17.793 76.8472 16.3233 76.3535 14.8172 76.2934C13.3117 76.2325 11.8355 76.6073 10.5712 77.3715L10.5709 77.3714Z" fill="white"></path><path d="M33.3862 70.5518C31.8556 70.5577 30.3665 71.0037 29.0958 71.835C27.826 72.6667 26.8305 73.8489 26.2265 75.2397C24.659 78.2286 24.5691 81.7886 25.9823 84.8978C27.5134 84.8621 28.9974 84.4019 30.2677 83.5679C31.5377 82.7327 32.541 81.5577 33.1669 80.1757C34.7406 77.1993 34.8222 73.6425 33.3862 70.5518L33.3862 70.5518Z" fill="white"></path><path d="M170.307 7.78673C168.846 6.16929 168.179 3.98857 168.515 1.93118C169.381 1.65017 170.329 1.64621 171.242 1.92075C172.154 2.19454 172.989 2.73451 173.639 3.47167C175.112 5.08375 175.781 7.27004 175.43 9.32722C174.564 9.60283 173.617 9.6045 172.706 9.33021C171.796 9.05668 170.961 8.52003 170.307 7.78661L170.307 7.78673Z" fill="white"></path><path d="M180.82 16.257C179.311 14.5046 178.757 12.1228 179.334 9.87109C179.687 7.57872 181.125 5.58747 183.197 4.52471C184.706 6.27649 185.261 8.65827 184.683 10.9098C184.345 13.2079 182.902 15.2046 180.82 16.2569L180.82 16.257Z" fill="white"></path><path d="M179.545 16.8926C178.965 17.7474 178.162 18.417 177.22 18.8303C176.278 19.245 175.231 19.3882 174.191 19.2454C173.164 19.1079 172.182 18.6822 171.359 18.0152C170.536 17.3489 169.904 16.4687 169.536 15.4754C170.109 14.624 170.906 13.9574 171.844 13.5473C172.781 13.1372 173.822 12.9983 174.857 13.1466C175.883 13.2847 176.865 13.7086 177.693 14.3691C178.52 15.0309 179.162 15.9046 179.545 16.8926L179.545 16.8926Z" fill="white"></path><path d="M184.806 29.8333C183.454 27.6164 183.198 24.9132 184.116 22.5348C184.786 20.1184 186.613 18.2273 188.989 17.4893C190.303 19.7065 190.548 22.385 189.655 24.7519C188.979 27.1639 187.169 29.0607 184.806 29.8333L184.806 29.8333Z" fill="white"></path><path d="M183.333 29.7169C182.517 30.6111 181.468 31.2679 180.314 31.6092C179.158 31.952 177.944 31.9646 176.816 31.6452C175.708 31.3413 174.72 30.7442 173.958 29.9155C173.195 29.0868 172.685 28.0591 172.483 26.9401C173.298 26.0889 174.326 25.4665 175.453 25.1437C176.58 24.8208 177.76 24.8105 178.859 25.1139C179.981 25.3886 180.989 25.9615 181.777 26.772C182.566 27.5832 183.103 28.6009 183.333 29.7167L183.333 29.7169Z" fill="white"></path><path d="M188.295 43.6897C187.328 40.8882 187.641 37.8519 189.145 35.4292C190.359 33.0236 192.764 31.5093 195.472 31.4439C196.439 34.2455 196.126 37.2826 194.621 39.7045C193.388 42.091 190.994 43.5988 188.295 43.6897Z" fill="white"></path><path d="M183.508 36.9966C185.728 38.3515 186.961 40.7818 186.783 43.4506C185.65 44.1786 184.356 44.5902 183.061 44.6328C181.765 44.676 180.527 44.3498 179.499 43.6936C177.252 42.3695 176.001 39.9401 176.187 37.2666C177.323 36.5328 178.622 36.1162 179.923 36.0681C181.226 36.0201 182.472 36.343 183.508 36.9966L183.508 36.9966Z" fill="white"></path><path d="M189.754 49.0906C190.507 48.0122 191.536 47.1613 192.735 46.6259C193.934 46.0889 195.26 45.8872 196.577 46.0398C197.151 48.9062 196.422 51.8529 194.59 54.0664C193.853 55.1459 192.836 56.0009 191.646 56.5395C190.457 57.078 189.137 57.2809 187.828 57.1268C187.233 54.266 187.941 51.3162 189.754 49.0907L189.754 49.0906Z" fill="white"></path><path d="M186.423 56.8604C185.318 57.3396 184.087 57.4745 182.882 57.2501C181.677 57.0248 180.552 56.449 179.645 55.5936C177.618 53.7824 176.585 51.0973 176.895 48.4406C178.007 47.95 179.25 47.809 180.467 48.0364C181.684 48.2637 182.819 48.8488 183.731 49.717C185.674 51.5773 186.672 54.2239 186.423 56.8606L186.423 56.8604Z" fill="white"></path><path d="M182.588 71.0352C182.916 67.9409 184.677 65.1653 187.346 63.5352C188.483 62.7389 189.824 62.2834 191.207 62.2219C192.592 62.16 193.96 62.4956 195.152 63.189C194.839 66.2912 193.087 69.0806 190.419 70.724C189.276 71.5251 187.929 71.981 186.54 72.0359C185.15 72.0914 183.778 71.7441 182.588 71.0352L182.588 71.0352Z" fill="white"></path><path d="M181.678 70.534C180.226 70.5514 178.82 70.1589 177.628 69.4014C176.436 68.644 175.506 67.554 174.951 66.2616C173.49 63.5546 173.388 60.2814 174.674 57.3583C176.123 57.3509 177.524 57.7485 178.715 58.5036C179.905 59.2601 180.837 60.3441 181.401 61.6298C182.862 64.3369 182.964 67.61 181.678 70.5339L181.678 70.534Z" fill="white"></path><path d="M189.381 77.3714C188.996 80.6747 187.084 83.6663 184.207 85.4639C182.948 86.3192 181.477 86.8013 179.973 86.8518C178.47 86.9022 176.999 86.5188 175.741 85.7475C176.103 82.4544 178.02 79.4732 180.905 77.7138C182.159 76.8472 183.629 76.3535 185.135 76.2934C186.64 76.2325 188.117 76.6073 189.381 77.3715L189.381 77.3714Z" fill="white"></path><path d="M166.566 70.5518C168.097 70.5577 169.586 71.0037 170.856 71.835C172.126 72.6667 173.122 73.8489 173.726 75.2397C175.293 78.2286 175.383 81.7886 173.97 84.8978C172.439 84.8621 170.955 84.4019 169.684 83.5679C168.414 82.7327 167.411 81.5577 166.785 80.1757C165.212 77.1993 165.13 73.6425 166.566 70.5518L166.566 70.5518Z" fill="white"></path><path d="M84.1229 20.055H80.3319V17.896H90.5999V20.055H86.8089V30H84.1229V20.055ZM96.8715 30.153C95.6701 30.153 94.6218 29.9037 93.7265 29.405C92.8425 28.895 92.1568 28.1697 91.6695 27.229C91.1935 26.2883 90.9555 25.189 90.9555 23.931C90.9555 22.673 91.1935 21.5793 91.6695 20.65C92.1568 19.7207 92.8425 19.0067 93.7265 18.508C94.6218 17.998 95.6701 17.743 96.8715 17.743C98.0728 17.743 99.1155 17.998 99.9995 18.508C100.883 19.0067 101.563 19.7207 102.039 20.65C102.515 21.5793 102.753 22.673 102.753 23.931C102.753 25.189 102.515 26.2883 102.039 27.229C101.563 28.1697 100.883 28.895 99.9995 29.405C99.1155 29.9037 98.0728 30.153 96.8715 30.153ZM96.8715 28.079C97.8915 28.079 98.6848 27.722 99.2515 27.008C99.8295 26.294 100.118 25.2683 100.118 23.931C100.118 22.5937 99.8295 21.5737 99.2515 20.871C98.6848 20.1683 97.8915 19.817 96.8715 19.817C95.8515 19.817 95.0525 20.1683 94.4745 20.871C93.9078 21.5737 93.6245 22.5937 93.6245 23.931C93.6245 25.2797 93.9078 26.311 94.4745 27.025C95.0525 27.7277 95.8515 28.079 96.8715 28.079ZM104.826 17.896H110.317C111.654 17.896 112.691 18.219 113.428 18.865C114.176 19.511 114.55 20.3893 114.55 21.5C114.55 22.5993 114.176 23.4777 113.428 24.135C112.68 24.781 111.643 25.104 110.317 25.104H107.478V30H104.826V17.896ZM109.977 23.081C111.36 23.081 112.051 22.5597 112.051 21.517C112.051 20.463 111.36 19.936 109.977 19.936H107.478V23.081H109.977ZM47.6906 45.314H42.0296L40.8736 48H38.2046L43.7636 35.896H45.9056L51.4646 48H48.8466L47.6906 45.314ZM46.8236 43.291L44.8686 38.752L42.9136 43.291H46.8236ZM62.987 35.896V48H61.015L54.98 40.282V48H52.498V35.896H54.453L60.488 43.597V35.896H62.987ZM65.414 35.896H70.089C71.415 35.896 72.554 36.134 73.506 36.61C74.458 37.086 75.1834 37.7773 75.682 38.684C76.192 39.5907 76.447 40.673 76.447 41.931C76.447 43.2003 76.1977 44.2883 75.699 45.195C75.2004 46.1017 74.475 46.7987 73.523 47.286C72.571 47.762 71.4264 48 70.089 48H65.414V35.896ZM69.919 45.858C72.503 45.858 73.795 44.549 73.795 41.931C73.795 39.3357 72.503 38.038 69.919 38.038H68.066V45.858H69.919ZM88.7463 48H85.9413L84.3943 43.971C84.2696 43.6537 84.0769 43.4327 83.8163 43.308C83.5669 43.1833 83.2496 43.121 82.8643 43.121H81.1473V48H78.5293V35.896H83.9183C85.3236 35.896 86.3889 36.202 87.1143 36.814C87.8396 37.426 88.2023 38.3043 88.2023 39.449C88.2023 40.2537 87.9869 40.945 87.5563 41.523C87.1369 42.101 86.5306 42.5147 85.7373 42.764C86.4513 42.9113 86.9669 43.4043 87.2843 44.243L88.7463 48ZM83.5273 41.098C84.2866 41.098 84.8419 40.9733 85.1933 40.724C85.5446 40.4633 85.7203 40.061 85.7203 39.517C85.7203 38.973 85.5446 38.5763 85.1933 38.327C84.8419 38.0663 84.2866 37.936 83.5273 37.936H81.1133V41.098H83.5273ZM96.0414 48.153C94.8401 48.153 93.7917 47.9037 92.8964 47.405C92.0124 46.895 91.3267 46.1697 90.8394 45.229C90.3634 44.2883 90.1254 43.189 90.1254 41.931C90.1254 40.673 90.3634 39.5793 90.8394 38.65C91.3267 37.7207 92.0124 37.0067 92.8964 36.508C93.7917 35.998 94.8401 35.743 96.0414 35.743C97.2427 35.743 98.2854 35.998 99.1694 36.508C100.053 37.0067 100.733 37.7207 101.209 38.65C101.685 39.5793 101.923 40.673 101.923 41.931C101.923 43.189 101.685 44.2883 101.209 45.229C100.733 46.1697 100.053 46.895 99.1694 47.405C98.2854 47.9037 97.2427 48.153 96.0414 48.153ZM96.0414 46.079C97.0614 46.079 97.8547 45.722 98.4214 45.008C98.9994 44.294 99.2884 43.2683 99.2884 41.931C99.2884 40.5937 98.9994 39.5737 98.4214 38.871C97.8547 38.1683 97.0614 37.817 96.0414 37.817C95.0214 37.817 94.2224 38.1683 93.6444 38.871C93.0777 39.5737 92.7944 40.5937 92.7944 41.931C92.7944 43.2797 93.0777 44.311 93.6444 45.025C94.2224 45.7277 95.0214 46.079 96.0414 46.079ZM103.996 35.896H106.648V48H103.996V35.896ZM109.076 35.896H113.751C115.077 35.896 116.216 36.134 117.168 36.61C118.12 37.086 118.845 37.7773 119.344 38.684C119.854 39.5907 120.109 40.673 120.109 41.931C120.109 43.2003 119.86 44.2883 119.361 45.195C118.862 46.1017 118.137 46.7987 117.185 47.286C116.233 47.762 115.088 48 113.751 48H109.076V35.896ZM113.581 45.858C116.165 45.858 117.457 44.549 117.457 41.931C117.457 39.3357 116.165 38.038 113.581 38.038H111.728V45.858H113.581ZM135.065 45.314H129.404L128.248 48H125.579L131.138 35.896H133.28L138.839 48H136.221L135.065 45.314ZM134.198 43.291L132.243 38.752L130.288 43.291H134.198ZM139.872 35.896H145.363C146.7 35.896 147.737 36.219 148.474 36.865C149.222 37.511 149.596 38.3893 149.596 39.5C149.596 40.5993 149.222 41.4777 148.474 42.135C147.726 42.781 146.689 43.104 145.363 43.104H142.524V48H139.872V35.896ZM145.023 41.081C146.406 41.081 147.097 40.5597 147.097 39.517C147.097 38.463 146.406 37.936 145.023 37.936H142.524V41.081H145.023ZM151.344 35.896H156.835C158.172 35.896 159.209 36.219 159.946 36.865C160.694 37.511 161.068 38.3893 161.068 39.5C161.068 40.5993 160.694 41.4777 159.946 42.135C159.198 42.781 158.161 43.104 156.835 43.104H153.996V48H151.344V35.896ZM156.495 41.081C157.877 41.081 158.569 40.5597 158.569 39.517C158.569 38.463 157.877 37.936 156.495 37.936H153.996V41.081H156.495ZM50.0908 53.896H54.7658C56.0918 53.896 57.2308 54.134 58.1828 54.61C59.1348 55.086 59.8601 55.7773 60.3588 56.684C60.8688 57.5907 61.1238 58.673 61.1238 59.931C61.1238 61.2003 60.8745 62.2883 60.3758 63.195C59.8771 64.1017 59.1518 64.7987 58.1998 65.286C57.2478 65.762 56.1031 66 54.7658 66H50.0908V53.896ZM54.5958 63.858C57.1798 63.858 58.4718 62.549 58.4718 59.931C58.4718 57.3357 57.1798 56.038 54.5958 56.038H52.7428V63.858H54.5958ZM63.206 53.896H71.553V55.953H65.79V58.809H71.196V60.883H65.79V63.943H71.553V66H63.206V53.896ZM84.9922 53.896L79.5522 66H77.4272L71.9872 53.896H74.7412L78.5152 62.685L82.3232 53.896H84.9922ZM85.9502 53.896H94.2972V55.953H88.5342V58.809H93.9402V60.883H88.5342V63.943H94.2972V66H85.9502V53.896ZM96.1269 53.896H98.7789V63.841H104.185V66H96.1269V53.896ZM110.684 66.153C109.483 66.153 108.434 65.9037 107.539 65.405C106.655 64.895 105.969 64.1697 105.482 63.229C105.006 62.2883 104.768 61.189 104.768 59.931C104.768 58.673 105.006 57.5793 105.482 56.65C105.969 55.7207 106.655 55.0067 107.539 54.508C108.434 53.998 109.483 53.743 110.684 53.743C111.885 53.743 112.928 53.998 113.812 54.508C114.696 55.0067 115.376 55.7207 115.852 56.65C116.328 57.5793 116.566 58.673 116.566 59.931C116.566 61.189 116.328 62.2883 115.852 63.229C115.376 64.1697 114.696 64.895 113.812 65.405C112.928 65.9037 111.885 66.153 110.684 66.153ZM110.684 64.079C111.704 64.079 112.497 63.722 113.064 63.008C113.642 62.294 113.931 61.2683 113.931 59.931C113.931 58.5937 113.642 57.5737 113.064 56.871C112.497 56.1683 111.704 55.817 110.684 55.817C109.664 55.817 108.865 56.1683 108.287 56.871C107.72 57.5737 107.437 58.5937 107.437 59.931C107.437 61.2797 107.72 62.311 108.287 63.025C108.865 63.7277 109.664 64.079 110.684 64.079ZM118.639 53.896H124.13C125.467 53.896 126.504 54.219 127.241 54.865C127.989 55.511 128.363 56.3893 128.363 57.5C128.363 58.5993 127.989 59.4777 127.241 60.135C126.493 60.781 125.456 61.104 124.13 61.104H121.291V66H118.639V53.896ZM123.79 59.081C125.172 59.081 125.864 58.5597 125.864 57.517C125.864 56.463 125.172 55.936 123.79 55.936H121.291V59.081H123.79ZM130.11 53.896H138.457V55.953H132.694V58.809H138.1V60.883H132.694V63.943H138.457V66H130.11V53.896ZM150.504 66H147.699L146.152 61.971C146.027 61.6537 145.835 61.4327 145.574 61.308C145.325 61.1833 145.007 61.121 144.622 61.121H142.905V66H140.287V53.896H145.676C147.081 53.896 148.147 54.202 148.872 54.814C149.597 55.426 149.96 56.3043 149.96 57.449C149.96 58.2537 149.745 58.945 149.314 59.523C148.895 60.101 148.288 60.5147 147.495 60.764C148.209 60.9113 148.725 61.4043 149.042 62.243L150.504 66ZM145.285 59.098C146.044 59.098 146.6 58.9733 146.951 58.724C147.302 58.4633 147.478 58.061 147.478 57.517C147.478 56.973 147.302 56.5763 146.951 56.327C146.6 56.0663 146.044 55.936 145.285 55.936H142.871V59.098H145.285Z" fill="white"></path><path d="M64.5525 82.32C64.9658 82.44 65.2858 82.65 65.5125 82.95C65.7391 83.25 65.8525 83.6167 65.8525 84.05C65.8525 84.65 65.6291 85.1267 65.1825 85.48C64.7358 85.8267 64.1291 86 63.3625 86H59.9825V78.88H63.2625C64.0025 78.88 64.5858 79.0467 65.0125 79.38C65.4458 79.7067 65.6625 80.1567 65.6625 80.73C65.6625 81.1033 65.5625 81.43 65.3625 81.71C65.1691 81.99 64.8991 82.1933 64.5525 82.32ZM61.5025 81.78H63.0025C63.4025 81.78 63.6991 81.7133 63.8925 81.58C64.0925 81.44 64.1925 81.2267 64.1925 80.94C64.1925 80.6467 64.0925 80.43 63.8925 80.29C63.6991 80.15 63.4025 80.08 63.0025 80.08H61.5025V81.78ZM63.1825 84.8C63.6025 84.8 63.9058 84.73 64.0925 84.59C64.2858 84.4433 64.3825 84.2133 64.3825 83.9C64.3825 83.58 64.2858 83.3467 64.0925 83.2C63.9058 83.0533 63.6025 82.98 63.1825 82.98H61.5025V84.8H63.1825ZM69.9654 86.09C68.9654 86.09 68.2054 85.8333 67.6854 85.32C67.1654 84.8067 66.9054 84.0533 66.9054 83.06V78.88H68.4354V83.13C68.4354 83.6967 68.5654 84.13 68.8254 84.43C69.092 84.7233 69.472 84.87 69.9654 84.87C70.4587 84.87 70.8354 84.7233 71.0954 84.43C71.3554 84.13 71.4854 83.6967 71.4854 83.13V78.88H73.0254V83.06C73.0254 84.0467 72.762 84.8 72.2354 85.32C71.7154 85.8333 70.9587 86.09 69.9654 86.09ZM76.8963 86.09C76.3563 86.09 75.8363 86.02 75.3363 85.88C74.843 85.7333 74.433 85.53 74.1063 85.27L74.6063 84.15C75.293 84.63 76.0596 84.87 76.9063 84.87C77.3596 84.87 77.7063 84.8 77.9463 84.66C78.193 84.5133 78.3163 84.31 78.3163 84.05C78.3163 83.8233 78.203 83.6467 77.9763 83.52C77.7563 83.3867 77.3663 83.26 76.8063 83.14C76.1796 83.0133 75.6796 82.86 75.3063 82.68C74.9396 82.4933 74.6696 82.27 74.4963 82.01C74.3296 81.7433 74.2463 81.4133 74.2463 81.02C74.2463 80.5933 74.363 80.21 74.5963 79.87C74.8363 79.53 75.1696 79.2667 75.5963 79.08C76.023 78.8867 76.5163 78.79 77.0763 78.79C77.583 78.79 78.0696 78.8633 78.5363 79.01C79.003 79.1567 79.3763 79.3567 79.6563 79.61L79.1563 80.73C78.5296 80.25 77.8396 80.01 77.0863 80.01C76.6863 80.01 76.3663 80.09 76.1263 80.25C75.8863 80.41 75.7663 80.6267 75.7663 80.9C75.7663 81.06 75.8096 81.1933 75.8963 81.3C75.9896 81.4067 76.143 81.5033 76.3563 81.59C76.5696 81.67 76.873 81.75 77.2663 81.83C78.1796 82.03 78.8363 82.29 79.2363 82.61C79.643 82.93 79.8463 83.3667 79.8463 83.92C79.8463 84.5867 79.5863 85.1167 79.0663 85.51C78.5463 85.8967 77.823 86.09 76.8963 86.09ZM80.9786 78.88H82.5386V86H80.9786V78.88ZM90.1368 78.88V86H88.9768L85.4268 81.46V86H83.9668V78.88H85.1168L88.6668 83.41V78.88H90.1368ZM91.5645 78.88H96.4745V80.09H93.0845V81.77H96.2645V82.99H93.0845V84.79H96.4745V86H91.5645V78.88ZM99.9432 86.09C99.4032 86.09 98.8832 86.02 98.3832 85.88C97.8898 85.7333 97.4798 85.53 97.1532 85.27L97.6532 84.15C98.3398 84.63 99.1065 84.87 99.9532 84.87C100.406 84.87 100.753 84.8 100.993 84.66C101.24 84.5133 101.363 84.31 101.363 84.05C101.363 83.8233 101.25 83.6467 101.023 83.52C100.803 83.3867 100.413 83.26 99.8532 83.14C99.2265 83.0133 98.7265 82.86 98.3532 82.68C97.9865 82.4933 97.7165 82.27 97.5432 82.01C97.3765 81.7433 97.2932 81.4133 97.2932 81.02C97.2932 80.5933 97.4098 80.21 97.6432 79.87C97.8832 79.53 98.2165 79.2667 98.6432 79.08C99.0698 78.8867 99.5632 78.79 100.123 78.79C100.63 78.79 101.116 78.8633 101.583 79.01C102.05 79.1567 102.423 79.3567 102.703 79.61L102.203 80.73C101.576 80.25 100.886 80.01 100.133 80.01C99.7332 80.01 99.4132 80.09 99.1732 80.25C98.9332 80.41 98.8132 80.6267 98.8132 80.9C98.8132 81.06 98.8565 81.1933 98.9432 81.3C99.0365 81.4067 99.1898 81.5033 99.4032 81.59C99.6165 81.67 99.9198 81.75 100.313 81.83C101.226 82.03 101.883 82.29 102.283 82.61C102.69 82.93 102.893 83.3667 102.893 83.92C102.893 84.5867 102.633 85.1167 102.113 85.51C101.593 85.8967 100.87 86.09 99.9432 86.09ZM106.515 86.09C105.975 86.09 105.455 86.02 104.955 85.88C104.462 85.7333 104.052 85.53 103.725 85.27L104.225 84.15C104.912 84.63 105.679 84.87 106.525 84.87C106.979 84.87 107.325 84.8 107.565 84.66C107.812 84.5133 107.935 84.31 107.935 84.05C107.935 83.8233 107.822 83.6467 107.595 83.52C107.375 83.3867 106.985 83.26 106.425 83.14C105.799 83.0133 105.299 82.86 104.925 82.68C104.559 82.4933 104.289 82.27 104.115 82.01C103.949 81.7433 103.865 81.4133 103.865 81.02C103.865 80.5933 103.982 80.21 104.215 79.87C104.455 79.53 104.789 79.2667 105.215 79.08C105.642 78.8867 106.135 78.79 106.695 78.79C107.202 78.79 107.689 78.8633 108.155 79.01C108.622 79.1567 108.995 79.3567 109.275 79.61L108.775 80.73C108.149 80.25 107.459 80.01 106.705 80.01C106.305 80.01 105.985 80.09 105.745 80.25C105.505 80.41 105.385 80.6267 105.385 80.9C105.385 81.06 105.429 81.1933 105.515 81.3C105.609 81.4067 105.762 81.5033 105.975 81.59C106.189 81.67 106.492 81.75 106.885 81.83C107.799 82.03 108.455 82.29 108.855 82.61C109.262 82.93 109.465 83.3667 109.465 83.92C109.465 84.5867 109.205 85.1167 108.685 85.51C108.165 85.8967 107.442 86.09 106.515 86.09ZM109.667 86.61L112.287 78.45H113.537L110.907 86.61H109.667ZM118.541 84.42H115.211L114.531 86H112.961L116.231 78.88H117.491L120.761 86H119.221L118.541 84.42ZM118.031 83.23L116.881 80.56L115.731 83.23H118.031ZM121.369 78.88H124.599C125.386 78.88 125.996 79.07 126.429 79.45C126.869 79.83 127.089 80.3467 127.089 81C127.089 81.6467 126.869 82.1633 126.429 82.55C125.989 82.93 125.379 83.12 124.599 83.12H122.929V86H121.369V78.88ZM124.399 81.93C125.213 81.93 125.619 81.6233 125.619 81.01C125.619 80.39 125.213 80.08 124.399 80.08H122.929V81.93H124.399ZM128.117 78.88H131.347C132.134 78.88 132.744 79.07 133.177 79.45C133.617 79.83 133.837 80.3467 133.837 81C133.837 81.6467 133.617 82.1633 133.177 82.55C132.737 82.93 132.127 83.12 131.347 83.12H129.677V86H128.117V78.88ZM131.147 81.93C131.961 81.93 132.367 81.6233 132.367 81.01C132.367 80.39 131.961 80.08 131.147 80.08H129.677V81.93H131.147ZM137.355 86.09C136.815 86.09 136.295 86.02 135.795 85.88C135.302 85.7333 134.892 85.53 134.565 85.27L135.065 84.15C135.752 84.63 136.519 84.87 137.365 84.87C137.819 84.87 138.165 84.8 138.405 84.66C138.652 84.5133 138.775 84.31 138.775 84.05C138.775 83.8233 138.662 83.6467 138.435 83.52C138.215 83.3867 137.825 83.26 137.265 83.14C136.639 83.0133 136.139 82.86 135.765 82.68C135.399 82.4933 135.129 82.27 134.955 82.01C134.789 81.7433 134.705 81.4133 134.705 81.02C134.705 80.5933 134.822 80.21 135.055 79.87C135.295 79.53 135.629 79.2667 136.055 79.08C136.482 78.8867 136.975 78.79 137.535 78.79C138.042 78.79 138.529 78.8633 138.995 79.01C139.462 79.1567 139.835 79.3567 140.115 79.61L139.615 80.73C138.989 80.25 138.299 80.01 137.545 80.01C137.145 80.01 136.825 80.09 136.585 80.25C136.345 80.41 136.225 80.6267 136.225 80.9C136.225 81.06 136.269 81.1933 136.355 81.3C136.449 81.4067 136.602 81.5033 136.815 81.59C137.029 81.67 137.332 81.75 137.725 81.83C138.639 82.03 139.295 82.29 139.695 82.61C140.102 82.93 140.305 83.3667 140.305 83.92C140.305 84.5867 140.045 85.1167 139.525 85.51C139.005 85.8967 138.282 86.09 137.355 86.09Z" fill="white"></path><path d="M90.1609 121V123H82.3369V121.16L86.1289 117.128C86.9182 116.275 87.3129 115.496 87.3129 114.792C87.3129 114.344 87.1795 114.008 86.9129 113.784C86.6569 113.549 86.2782 113.432 85.7769 113.432C84.8062 113.432 83.7982 113.8 82.7529 114.536L81.9529 112.744C82.4115 112.349 82.9982 112.04 83.7129 111.816C84.4275 111.581 85.1529 111.464 85.8889 111.464C87.0729 111.464 88.0115 111.752 88.7049 112.328C89.4089 112.893 89.7609 113.656 89.7609 114.616C89.7609 115.277 89.6222 115.891 89.3449 116.456C89.0782 117.011 88.6249 117.629 87.9849 118.312L85.4089 121H90.1609ZM95.7063 123.144C94.3303 123.144 93.2743 122.643 92.5383 121.64C91.8129 120.637 91.4503 119.187 91.4503 117.288C91.4503 115.411 91.8129 113.976 92.5383 112.984C93.2743 111.992 94.3303 111.496 95.7063 111.496C97.0823 111.496 98.1329 111.992 98.8583 112.984C99.5943 113.976 99.9623 115.411 99.9623 117.288C99.9623 119.187 99.5943 120.637 98.8583 121.64C98.1329 122.643 97.0823 123.144 95.7063 123.144ZM95.7063 121.224C96.3356 121.224 96.7943 120.915 97.0823 120.296C97.3703 119.677 97.5143 118.675 97.5143 117.288C97.5143 115.933 97.3703 114.952 97.0823 114.344C96.7943 113.725 96.3356 113.416 95.7063 113.416C95.0769 113.416 94.6183 113.725 94.3303 114.344C94.0423 114.952 93.8983 115.933 93.8983 117.288C93.8983 118.675 94.0423 119.677 94.3303 120.296C94.6183 120.915 95.0769 121.224 95.7063 121.224ZM109.364 121V123H101.54V121.16L105.332 117.128C106.121 116.275 106.516 115.496 106.516 114.792C106.516 114.344 106.383 114.008 106.116 113.784C105.86 113.549 105.481 113.432 104.98 113.432C104.009 113.432 103.001 113.8 101.956 114.536L101.156 112.744C101.615 112.349 102.201 112.04 102.916 111.816C103.631 111.581 104.356 111.464 105.092 111.464C106.276 111.464 107.215 111.752 107.908 112.328C108.612 112.893 108.964 113.656 108.964 114.616C108.964 115.277 108.825 115.891 108.548 116.456C108.281 117.011 107.828 117.629 107.188 118.312L104.612 121H109.364ZM114.909 123.144C113.533 123.144 112.477 122.643 111.741 121.64C111.016 120.637 110.653 119.187 110.653 117.288C110.653 115.411 111.016 113.976 111.741 112.984C112.477 111.992 113.533 111.496 114.909 111.496C116.285 111.496 117.336 111.992 118.061 112.984C118.797 113.976 119.165 115.411 119.165 117.288C119.165 119.187 118.797 120.637 118.061 121.64C117.336 122.643 116.285 123.144 114.909 123.144ZM114.909 121.224C115.539 121.224 115.997 120.915 116.285 120.296C116.573 119.677 116.717 118.675 116.717 117.288C116.717 115.933 116.573 114.952 116.285 114.344C115.997 113.725 115.539 113.416 114.909 113.416C114.28 113.416 113.821 113.725 113.533 114.344C113.245 114.952 113.101 115.933 113.101 117.288C113.101 118.675 113.245 119.677 113.533 120.296C113.821 120.915 114.28 121.224 114.909 121.224Z" fill="white"></path><path fill-rule="evenodd" clip-rule="evenodd" d="M74 117H31V115H74V117Z" fill="white"></path><path fill-rule="evenodd" clip-rule="evenodd" d="M170 117H127V115H170V117Z" fill="white"></path></svg>