<svg xmlns="http://www.w3.org/2000/svg" width="163.681" height="48.578" viewBox="0 0 163.681 48.578"><path d="M44.94,47.044a11.839,11.839,0,0,1-7.421-2.961l.552-2.59.024-.1c.491-2.757,2.05-7.385,6.845-7.385a6.516,6.516,0,1,1,0,13.032Zm0-19.637c-6.126,0-10.874,3.98-12.8,10.526A53.92,53.92,0,0,1,25.65,23.726H19.056V40.882a6.138,6.138,0,0,1-12.276,0V23.726H.186V40.882a12.732,12.732,0,1,0,25.464,0V38a41.071,41.071,0,0,0,4.759,7.769l-4.04,18.99h6.75l2.925-13.775a16.24,16.24,0,0,0,8.9,2.674,13.128,13.128,0,0,0,0-26.255Z" transform="translate(-0.186 -16.185)" fill="#fff"></path><path d="M201.749,12.115l4.256,17.156,4.688-17.156h5.587l-7.2,24.792h-5.587l-4.424-17.264-4.412,17.252h-5.587L181.86,12.1h5.587l4.687,17.156L196.39,12.1h5.359v.012Zm27.9-.743A13.128,13.128,0,1,0,242.786,24.5,13.131,13.131,0,0,0,229.647,11.371Zm0,20.86a7.721,7.721,0,1,1,7.721-7.721A7.716,7.716,0,0,1,229.647,32.231Zm29.1-14.566a6.787,6.787,0,0,0-6.785,6.785V36.895h-5.623V12.115h5.623v3.812a8.99,8.99,0,0,1,7.325-3.824h1.726v5.563h-2.266Zm18.87,5.874a13.14,13.14,0,0,0,6.7-11.437h-5.623A7.5,7.5,0,0,1,271.2,19.6h-.755V.15h-5.622V36.895h5.622V25.218h.672a2.225,2.225,0,0,1,1.594.8l7.984,10.874h6.738L277.613,23.54Z" transform="translate(-123.751 -0.15)" fill="#fff"></path></svg>